<svg width="120" height="120" viewBox="0 0 120 120" fill="none" xmlns="http://www.w3.org/2000/svg">
<rect width="120" height="120" rx="20" fill="#7C01E7"/>
<g clip-path="url(#clip0_1_3417)">
<path d="M105.219 88.062C105.219 88.7973 105.219 89.5326 105.139 90.3795C104.963 90.7461 104.927 91.0534 104.76 91.2456C104.333 91.7349 103.886 92.5101 103.378 92.5681C101.849 92.7429 100.28 92.7087 98.7382 92.6006C97.8431 92.5378 97.2526 91.8364 97.3647 90.9271C97.5141 89.7156 97.8798 88.532 98.1207 87.3301C98.3435 86.2183 98.5241 85.0981 98.7686 83.7277C97.3503 85.331 96.2083 86.7809 94.904 88.066C91.3683 91.5494 87.0672 93.7759 82.41 95.3462C76.586 97.3099 70.518 97.8698 64.4421 98.0761C60.4246 98.2125 56.3726 98.0196 52.3671 97.6434C47.8539 97.2194 43.3972 96.3167 39.1422 94.6578C35.3239 93.1692 31.7376 91.274 28.8215 88.3223C27.4273 86.911 26.1188 85.415 24.7661 83.9515C24.8711 85.0903 24.927 86.2412 25.0952 87.3756C25.2787 88.6135 25.6419 89.8275 25.7824 91.0683C25.8811 91.9395 25.1276 92.6464 24.2605 92.6613C22.9308 92.684 21.6002 92.6514 20.2704 92.6714C19.1417 92.6884 18.5842 91.9787 18.4074 91.0393C18.2513 90.2101 18.161 89.2709 18.3963 88.4867C18.836 87.0214 18.714 85.5905 18.6747 84.1125C18.5745 80.3483 18.5094 76.5776 18.623 72.8154C18.6892 70.6262 18.984 68.4188 19.4266 66.2712C20.4056 61.521 22.4821 57.1784 24.7325 52.9186C25.7821 50.9316 26.823 48.9861 26.7303 46.589C26.6828 45.3597 27.049 44.0756 27.4244 42.8777C28.0005 41.0395 28.5232 39.2724 28.2624 37.2648C27.9735 35.041 28.0989 32.766 27.9806 30.5167C27.84 27.8423 27.9323 25.2192 28.8235 22.6435C30.0154 19.1988 32.7836 18.0349 35.9924 18.6327C38.7527 19.147 40.8501 20.8502 42.9565 22.4644C44.7243 23.8191 46.2511 25.487 47.9004 26.9989C48.1248 27.2046 48.4255 27.3901 48.7178 27.4473C49.636 27.6268 50.5641 27.8016 51.4949 27.848C51.8365 27.865 52.3769 27.6081 52.5192 27.3229C53.6421 25.0707 55.1834 23.1637 56.8993 21.3304C59.288 18.7781 62.2014 17.1375 65.3662 15.8283C65.6984 15.6909 65.9774 15.4247 66.2811 15.2183C66.7997 15.2183 67.3182 15.2183 67.9387 15.2984C68.8053 16.3935 68.8536 17.3421 68.0978 18.4637C67.1579 19.8585 66.4177 21.3877 65.6099 22.8257C67.5313 23.0757 69.2773 23.3285 71.0298 23.5233C72.6691 23.7054 73.7703 24.356 73.7563 25.4464C73.7481 26.0934 73.2906 26.7347 72.9546 27.5813C73.9189 27.3414 75.1214 27.3553 75.8923 26.7854C77.5029 25.5947 78.8531 24.0585 80.3714 22.7342C81.8842 21.4146 83.4534 20.1878 85.3218 19.3383C89.4844 17.4457 93.809 18.5487 94.9581 23.5642C95.3029 25.0691 95.5551 26.6264 95.5864 28.1651C95.6409 30.8345 95.4968 33.5082 95.4232 36.1798C95.3697 38.1226 95.0048 40.0461 95.6201 42.0014C96.1344 43.6355 96.3578 45.3618 96.7004 47.0493C96.9515 48.2861 96.9832 49.6132 97.4678 50.7484C98.9005 54.1046 100.588 57.3516 102.03 60.7043C103.893 65.0398 104.854 69.591 104.775 74.3307C104.724 77.3465 104.645 80.3618 104.561 83.3769C104.529 84.5722 104.381 85.7693 104.433 86.9591C104.45 87.3375 104.943 87.695 105.219 88.062ZM65.5895 87.4797C65.4594 87.325 65.3604 87.1031 65.1943 87.0262C63.9561 86.4529 62.7046 85.9082 61.4948 85.3712C60.3917 85.8865 59.2434 86.4117 58.1096 86.9667C57.9653 87.0373 57.897 87.2633 57.7508 87.6154C57.7508 88.2532 57.7508 88.8909 57.7508 89.5346C60.3902 89.5346 62.9956 89.5346 65.6532 89.5346C65.622 88.8633 65.5936 88.2511 65.5895 87.4797ZM43.9179 28.3187C44.3515 28.2289 44.7851 28.139 45.5223 27.9862C43.3873 26.2084 41.5236 24.5373 39.5272 23.0434C38.5006 22.2752 37.2801 21.7087 36.0699 21.2588C34.792 20.7837 33.4369 20.6595 32.1707 21.8105C31.7899 22.539 31.2681 23.2284 31.0524 24.0029C30.0707 27.5268 30.3599 31.1318 30.5174 34.7227C30.5195 34.7698 30.6135 34.8129 30.6663 34.856C32.483 34.3928 33.3296 33.2162 33.4417 31.3635C33.5285 29.9287 33.6728 28.4574 34.0889 27.0929C34.5846 25.4679 36.0007 24.7943 37.5559 25.4564C38.8286 25.9983 40.068 26.7842 41.0798 27.723C41.956 28.536 42.7094 28.7956 43.9179 28.3187ZM79.7445 28.4549C80.689 28.9016 81.333 28.5868 82.1075 27.8889C83.1648 26.9361 84.3888 26.0757 85.6862 25.505C87.3823 24.759 88.8624 25.4872 89.3705 27.2585C89.745 28.5641 89.8617 29.9658 89.927 31.3326C90.0204 33.2897 90.9477 34.4747 93.1133 34.8924C93.1133 32.4019 93.2347 29.9404 93.0696 27.4983C92.9637 25.9302 92.5232 24.3642 92.0659 22.8476C91.7744 21.881 91.0128 21.2153 89.7644 21.0267C88.612 21.2425 87.368 21.2511 86.3244 21.7128C83.1288 23.1268 80.7683 25.6683 78.0401 28.126C78.7269 28.2251 79.1743 28.2896 79.7445 28.4549ZM64.2712 19.045C63.1864 19.7277 62.1017 20.4104 60.8702 21.1263C57.9712 23.3367 55.7951 26.1133 54.199 29.581C54.774 29.7953 55.2696 29.98 55.955 30.1526C59.6075 29.4127 63.2622 29.4785 66.9042 30.1938C67.8133 30.3723 68.3102 29.9161 68.6217 29.2469C69.1289 28.1572 69.5202 27.0136 69.9588 25.8967C68.3194 25.3437 65.9217 25.391 63.33 25.9935C62.8944 26.0948 62.1432 26.069 61.9804 25.8165C61.7538 25.4653 61.789 24.7722 61.9844 24.3522C62.7946 22.6109 63.7071 20.9172 64.6884 19.1456C64.5993 19.097 64.5103 19.0484 64.2712 19.045ZM55.5726 49.2967C58.2031 55.2412 58.357 61.5363 58.1029 67.8418C60.5741 67.8418 62.9457 67.8418 65.373 67.8418C64.9761 61.4573 65.358 55.1522 67.9791 49.0519C66.639 48.2374 65.3298 47.3652 63.9494 46.626C62.7552 45.9865 61.4213 45.8623 60.1415 46.3309C58.6116 46.8912 57.1316 47.5871 55.6281 48.2199C55.0032 48.4829 55.3039 48.8097 55.5726 49.2967ZM68.5605 73.2658C67.2592 75.7813 65.505 77.7653 62.5806 78.2561C62.5806 79.9232 62.5806 81.4792 62.5509 83.1959C63.1093 83.6558 63.6096 84.2263 64.2365 84.5558C66.4183 85.7025 68.7034 85.8211 70.9815 84.8665C72.9683 84.034 74.4204 82.7238 74.675 80.3973C74.704 80.1324 75.3051 79.7345 75.6216 79.7518C75.9353 79.7689 76.3151 80.1846 76.4941 80.5178C76.6234 80.7584 76.5144 81.1606 76.4383 81.4728C75.7282 84.3871 73.6979 86.0277 70.9924 86.918C69.9092 87.2745 68.7461 87.3882 67.61 87.6142C67.61 88.4621 67.5672 89.3018 67.6211 90.1353C67.6849 91.1201 67.2729 91.5438 66.2965 91.5391C63.1989 91.5241 60.101 91.5228 57.0034 91.5395C56.0149 91.5448 55.6272 91.0813 55.6666 90.1243C55.7021 89.2634 55.6741 88.3999 55.6741 87.7107C54.1105 87.3222 52.5394 87.1179 51.1216 86.5385C48.672 85.5374 46.9336 83.7926 46.5444 81.0169C46.4559 80.3861 46.5811 79.8041 47.3466 79.7122C48.0875 79.6232 48.3682 80.0834 48.4483 80.7597C48.6083 82.1113 49.3662 83.1066 50.4068 83.9191C53.0768 86.0038 57.295 85.9978 59.9808 83.878C60.2354 83.6771 60.5089 83.3154 60.5187 83.0199C60.5715 81.4307 60.5437 79.8388 60.5437 78.2329C57.195 77.3532 55.4743 74.9592 54.3246 72.0317C53.8109 70.7237 54.1194 69.6536 55.2683 69.0166C55.9547 68.6359 56.1473 68.1527 56.1745 67.4518C56.3288 63.4757 56.3195 59.5063 55.5276 55.5866C55.0825 53.3835 54.4974 51.2159 53.327 49.2355C47.8667 50.9803 42.3271 51.6616 36.719 52.0797C34.5445 52.2419 32.4004 52.9731 30.2792 53.5745C29.7328 53.7294 29.0646 54.29 28.897 54.8081C27.911 57.8566 26.4866 60.701 25.1876 63.6154C22.7126 69.1685 22.7824 74.7703 25.8147 80.3449C26.6613 81.6139 27.4121 82.9609 28.3712 84.1382C32.4473 89.1416 37.8928 91.9678 44.0184 93.5215C54.2315 96.1119 64.5668 96.0791 74.9152 94.4999C80.4015 93.6627 85.5906 91.9016 90.1732 88.6576C92.8092 86.7916 95.0965 84.5747 96.819 81.6399C100.693 75.4353 100.959 68.9959 97.7099 62.5262C96.5775 60.2716 95.5712 58.0079 94.8709 55.607C94.5703 54.576 93.9438 54.0748 93.0017 53.7164C89.8219 52.5067 86.4496 52.4526 83.1461 51.9609C78.9416 51.335 74.7547 50.5873 70.5686 49.8448C69.9759 49.7396 69.6872 49.8435 69.5009 50.3948C69.3269 50.9101 69.0791 51.4005 68.9065 51.9162C67.2009 57.011 66.9699 62.2571 67.3003 67.5631C67.3429 68.2484 67.4689 68.7437 68.1722 69.1303C69.2331 69.7135 69.5062 70.6915 69.1544 71.8542C69.0182 72.3043 68.8439 72.7429 68.5605 73.2658ZM64.9979 31.8413C62.298 31.5243 59.6061 31.4321 56.8241 32.0126C57.0515 32.6262 57.1417 33.1565 57.4155 33.5632C59.631 36.8553 58.3201 40.436 56.0673 42.5838C51.2412 47.1848 45.4029 48.9356 38.8869 47.9362C35.4707 47.4123 32.7495 45.6055 32.0276 41.8122C31.9959 41.6458 31.9046 41.4908 31.6885 40.9455C30.9481 41.989 30.12 42.7373 29.8209 43.6575C28.9687 46.2787 29.0428 49.0211 29.1121 51.7082C30.7485 51.2698 32.2963 50.6908 33.894 50.4643C36.4832 50.0973 39.1121 50.0206 41.7119 49.7159C47.2435 49.0676 52.5905 47.7645 57.594 45.2038C60.4132 43.7611 63.2563 43.7654 66.0251 45.4734C67.0465 46.1034 68.0957 46.702 69.18 47.2135C72.4998 48.7795 76.1204 49.0625 79.6831 49.5571C83.1404 50.0371 86.6151 50.3946 90.0671 50.9075C91.4466 51.1125 92.7856 51.5896 94.2385 51.9677C94.3557 49.2686 94.4041 46.6892 93.7539 44.1588C93.3866 42.7292 92.4824 41.7145 91.1315 41.0189C90.8936 41.8939 90.769 42.6596 90.4808 43.3579C89.423 45.9213 87.2879 47.2451 84.7369 47.7757C78.2677 49.1213 72.5472 47.3001 67.5311 43.188C64.8853 41.0191 63.1747 37.1658 65.6102 33.4299C65.8385 33.0797 65.8989 32.62 66.0638 32.1327C65.7183 32.0237 65.4497 31.9389 64.9979 31.8413ZM88.8016 41.5596C90.2828 39.7306 90.4279 37.9016 89.1902 35.9298C88.8254 35.3485 88.4063 34.768 87.8978 34.3154C83.1886 30.1227 77.7559 28.418 71.5388 29.8711C66.6745 31.008 65.5628 34.8944 69.0786 38.4541C72.983 42.4072 77.8086 44.1234 83.3315 43.8064C85.3221 43.6921 87.2064 43.137 88.8016 41.5596ZM37.8825 43.5226C42.0693 44.4344 45.9803 43.5431 49.6939 41.6149C51.9477 40.4447 53.9492 38.9223 55.2462 36.6662C56.5816 34.3436 56.001 32.1454 53.687 30.7894C53.0061 30.3904 52.2455 30.0861 51.4836 29.8747C49.1299 29.2216 46.7327 29.153 44.346 29.6538C40.5266 30.4552 37.0314 31.9472 34.451 34.9993C31.797 38.1386 32.7402 41.6202 36.559 43.1385C36.9281 43.2853 37.3243 43.3641 37.8825 43.5226ZM22.7111 62.3312C21.513 65.3268 20.6862 68.4475 20.6276 71.6536C20.5353 76.7073 20.7369 81.7663 20.797 86.8232C20.8043 87.4439 21.0602 87.6729 21.6568 87.6291C22.0445 87.6006 22.4359 87.6237 22.919 87.6237C22.78 86.1854 22.6389 84.8951 22.5334 83.6018C22.2883 80.5966 22.1804 77.5747 21.7989 74.5874C21.1268 69.3252 22.2374 64.5164 24.7796 59.8929C25.8318 57.9791 26.3613 55.777 27.1106 53.6995C27.1719 53.5296 27.0948 53.3098 27.0821 53.1131C26.9823 53.0817 26.8826 53.0503 26.7828 53.0189C25.446 56.0703 24.1092 59.1217 22.7111 62.3312ZM34.366 43.775C35.4076 45.3857 37.0321 46.1213 38.7915 46.4949C43.1868 47.4283 47.3137 46.4423 51.2321 44.4452C53.1244 43.4806 54.8313 42.2379 56.039 40.4278C56.9811 39.0158 57.266 37.7785 56.9328 36.4348C55.6136 39.2676 53.4089 41.2036 50.7687 42.5964C45.5298 45.36 40.1263 46.4714 34.366 43.775ZM87.5764 44.9284C87.8953 44.8222 88.2141 44.7159 88.533 44.6097C88.3876 44.4716 88.2422 44.3334 88.0968 44.1953C78.9452 46.7683 71.5271 44.3269 65.8617 36.6437C65.6677 38.8809 66.7919 40.6468 68.4355 42.1043C71.6515 44.9563 75.4865 46.3936 79.74 46.746C82.4799 46.9731 85.1267 46.7148 87.5764 44.9284ZM98.3422 59.5905C98.946 60.7511 99.6218 61.8806 100.139 63.0785C101.368 65.9216 102.042 68.9361 101.833 72.009C101.504 76.8268 100.899 81.6255 100.428 86.434C100.375 86.9734 100.16 87.6298 101.158 87.6429C101.976 87.6535 102.405 87.5481 102.411 86.5493C102.43 83.0929 102.586 79.6375 102.62 76.181C102.64 74.151 102.622 72.112 102.456 70.0906C102.126 66.0816 100.637 62.3914 99.0804 58.7373C98.2605 56.8122 97.3599 54.9216 96.4958 53.0154C96.3501 53.0696 96.2044 53.1237 96.0587 53.1779C96.79 55.2697 97.5213 57.3616 98.3422 59.5905ZM87.0535 31.7573C87.3353 31.9445 87.617 32.1316 88.1987 32.5179C88.0035 30.8613 87.9031 29.5007 87.6646 28.1648C87.5073 27.2836 86.8627 26.9309 86.0479 27.4117C85.0381 28.0077 84.0909 28.7098 83.0092 29.4384C83.8597 29.8819 84.479 30.1822 85.0756 30.5222C85.7041 30.8803 86.3109 31.2763 87.0535 31.7573ZM39.0957 28.5048C38.5484 28.1528 38.0301 27.7397 37.4473 27.4622C36.4257 26.9758 35.9159 27.1702 35.6935 28.2582C35.4448 29.4744 35.3923 30.7307 35.2419 32.0814C36.9652 31.0985 38.4643 30.2434 40.0163 29.3582C39.7346 29.0896 39.477 28.8441 39.0957 28.5048ZM99.6522 90.6708C100.694 90.6708 101.735 90.6708 102.787 90.6708C102.875 90.0756 102.946 89.5933 103.023 89.0716C101.834 89.0716 100.799 89.0716 99.6954 89.0716C99.6362 89.5964 99.5838 90.0604 99.6522 90.6708ZM20.3286 89.891C20.4961 90.1567 20.6461 90.6366 20.8342 90.6521C21.7865 90.7305 22.7488 90.6882 23.7396 90.6882C23.6599 90.0482 23.5992 89.5607 23.5299 89.0047C22.5663 89.0047 21.699 88.9637 20.8413 89.0361C20.649 89.0523 20.4903 89.4653 20.3286 89.891Z" fill="#2C2936"/>
<path d="M25.8067 80.1892C22.7813 74.7704 22.7114 69.1685 25.1865 63.6155C26.4855 60.7011 27.9098 57.8566 28.8959 54.8081C29.0635 54.2901 29.7317 53.7294 30.278 53.5745C32.3993 52.9732 34.5434 52.242 36.7178 52.0798C42.3259 51.6616 47.8656 50.9804 53.3259 49.2356C54.4962 51.216 55.0813 53.3836 55.5264 55.5867C56.3184 59.5064 56.3277 63.4757 56.1733 67.4519C56.1461 68.1528 55.9536 68.636 55.2671 69.0166C54.1183 69.6536 53.8098 70.7238 54.3235 72.0318C55.4732 74.9593 57.1938 77.3533 60.5425 78.2329C60.5425 79.8388 60.5704 81.4307 60.5175 83.0199C60.5077 83.3155 60.2342 83.6771 59.9796 83.8781C57.2938 85.9978 53.0756 86.0038 50.4056 83.9191C49.3651 83.1067 48.6072 82.1114 48.4471 80.7597C48.367 80.0834 48.0864 79.6233 47.3454 79.7122C46.58 79.8041 46.4548 80.3861 46.5432 81.017C46.9325 83.7926 48.6708 85.5375 51.1205 86.5385C52.5383 87.1179 54.1093 87.3223 55.673 87.7107C55.673 88.4 55.7009 89.2635 55.6655 90.1244C55.6261 91.0814 56.0138 91.5449 57.0023 91.5396C60.0999 91.5228 63.1977 91.5242 66.2954 91.5392C67.2717 91.5439 67.6838 91.1202 67.62 90.1353C67.566 89.3019 67.6089 88.4622 67.6089 87.6143C68.7449 87.3883 69.9081 87.2746 70.9913 86.9181C73.6967 86.0277 75.7271 84.3872 76.4372 81.4729C76.5133 81.1607 76.6222 80.7585 76.4929 80.5178C76.3139 80.1847 75.9341 79.769 75.6205 79.7518C75.304 79.7345 74.7029 80.1324 74.6739 80.3974C74.4192 82.7239 72.9671 84.0341 70.9804 84.8666C68.7023 85.8212 66.4172 85.7025 64.2354 84.5559C63.6084 84.2264 63.1082 83.6559 62.6441 83.0872C62.8245 82.5328 62.9375 82.0903 62.992 81.6408C63.1682 80.1856 63.2629 78.7785 65.0442 78.1727C65.8523 77.8979 66.6171 77.1982 67.1559 76.5013C67.8989 75.5404 68.8582 74.6009 68.6858 73.1867C68.8428 72.7429 69.0171 72.3044 69.1532 71.8543C69.5051 70.6916 69.2319 69.7136 68.171 69.1303C67.4678 68.7437 67.3418 68.2485 67.2991 67.5632C66.9688 62.2571 67.1998 57.0111 68.9053 51.9163C69.0779 51.4006 69.3257 50.9101 69.4998 50.3949C69.686 49.8436 69.9748 49.7397 70.5674 49.8448C74.7535 50.5874 78.9404 51.3351 83.145 51.9609C86.4485 52.4527 89.8207 52.5068 93.0006 53.7165C93.9426 54.0748 94.5691 54.5761 94.8698 55.607C95.57 58.008 96.5763 60.2717 97.7087 62.5262C100.958 68.996 100.692 75.4354 96.6802 81.6868C95.2336 82.9784 94.0172 84.3435 92.5933 85.4389C90.6145 86.9611 88.6143 88.5595 86.3864 89.6343C80.2356 92.6018 73.5765 93.667 66.8259 93.9259C60.2513 94.1779 53.6745 93.948 47.1536 92.8781C39.2864 91.5873 32.5806 88.2617 27.5685 81.8836C27.0699 81.2491 26.3981 80.7508 25.8067 80.1892ZM50.1126 57.9977C49.966 57.6657 49.836 57.3252 49.6704 57.0029C47.3086 52.4068 41.9969 51.4939 38.6519 55.1132C37.2958 56.5805 36.6059 58.3474 36.3664 60.3131C35.9676 63.5873 38.0156 67.028 41.0558 68.172C44.0632 69.3037 47.4447 68.213 49.3082 65.4506C50.8377 63.1833 51.0401 60.7274 50.1126 57.9977ZM81.1211 68.5207C83.0782 68.1459 84.6246 67.1416 85.7426 65.4902C88.2603 61.7716 87.0873 56.2108 83.2636 53.8476C81.9587 53.0411 80.5434 52.6553 78.9848 52.9626C75.008 53.7469 72.2629 57.8845 72.8472 62.2388C73.377 66.1868 76.7881 68.8526 81.1211 68.5207ZM44.8465 73.0714C42.6268 72.3282 40.3771 71.784 37.7837 71.9038C40.0661 73.2877 46.3376 74.9123 48.3758 74.6202C47.1174 74.066 46.0614 73.601 44.8465 73.0714ZM75.1167 74.7929C74.9978 74.89 74.8789 74.987 74.5203 75.2795C78.3301 74.8277 81.6649 73.8657 85.1004 72.467C82.5815 71.9862 78.5702 72.9451 75.1167 74.7929ZM39.6324 75.2781C38.8143 75.454 37.9963 75.63 37.1782 75.8059C37.1875 75.9324 37.1968 76.0589 37.2061 76.1854C40.5511 76.3423 43.8962 76.4992 47.2412 76.6561C47.2463 76.5486 47.2513 76.4412 47.2563 76.3337C45.2308 75.3586 42.8333 75.0055 39.6324 75.2781ZM84.4307 76.6253C84.8321 76.5534 85.2336 76.4815 85.6351 76.4096C82.2317 75.2317 78.9076 75.3147 75.6527 76.691C75.6583 76.8096 75.6639 76.9282 75.6694 77.0467C78.5271 76.9144 81.3847 76.7821 84.4307 76.6253ZM79.3422 78.3902C78.3132 78.3902 77.2843 78.3902 76.2553 78.3902C76.2366 78.5358 76.2179 78.6813 76.1992 78.8268C78.7511 79.4583 81.3031 80.0897 83.8551 80.7212C83.887 80.6171 83.919 80.5129 83.951 80.4088C82.7222 79.2276 81.1829 78.6988 79.3422 78.3902ZM43.6376 79.0849C44.6509 78.8171 45.6643 78.5492 46.6776 78.2814C43.5183 77.3302 40.2615 78.2103 38.9261 80.2442C40.5034 79.8482 41.9801 79.4774 43.6376 79.0849Z" fill="#D9D7DA"/>
<path d="M65.0891 31.8483C65.4493 31.9395 65.7179 32.0242 66.0634 32.1332C65.8985 32.6205 65.8381 33.0802 65.6097 33.4305C63.1743 37.1663 64.8848 41.0196 67.5306 43.1886C72.5467 47.3007 78.2672 49.1219 84.7364 47.7763C87.2875 47.2457 89.4226 45.9218 90.4804 43.3585C90.7686 42.6602 90.8932 41.8944 91.131 41.0194C92.482 41.715 93.3862 42.7298 93.7535 44.1593C94.4036 46.6898 94.3552 49.2691 94.238 51.9682C92.7852 51.5902 91.4462 51.113 90.0667 50.908C86.6147 50.3951 83.1399 50.0376 79.6827 49.5577C76.12 49.0631 72.4994 48.78 69.1796 47.214C68.0952 46.7026 67.046 46.1039 66.0247 45.4739C63.2558 43.7659 60.4127 43.7616 57.5936 45.2044C52.5901 47.765 47.243 49.0682 41.7115 49.7165C39.1117 50.0212 36.4827 50.0978 33.8935 50.4649C32.2958 50.6913 30.7481 51.2703 29.1117 51.7088C29.0423 49.0216 28.9683 46.2793 29.8204 43.658C30.1196 42.7378 30.9477 41.9896 31.6881 40.9461C31.9041 41.4913 31.9955 41.6463 32.0271 41.8127C32.7491 45.606 35.4703 47.4129 38.8865 47.9368C45.4025 48.9362 51.2407 47.1854 56.0669 42.5843C58.3197 40.4366 59.6305 36.8559 57.415 33.5638C57.1413 33.157 57.051 32.6267 56.8237 32.0131C59.6057 31.4326 62.2976 31.5249 65.0891 31.8483Z" fill="#6E6E6E"/>
<path d="M67.8681 49.1376C65.3569 55.1525 64.975 61.4576 65.3719 67.8422C62.9446 67.8422 60.573 67.8422 58.1018 67.8422C58.3559 61.5366 58.202 55.2416 55.6121 49.1589C56.7739 48.5124 57.8932 47.9997 59.0169 47.4968C60.9622 46.6262 62.834 46.8778 64.6623 47.8653C65.2696 48.1933 65.8813 48.5213 66.5176 48.7849C66.9434 48.9613 67.4163 49.024 67.8681 49.1376Z" fill="#FEFEFE"/>
<path d="M25.8113 80.2676C26.3993 80.7512 27.0711 81.2496 27.5697 81.8841C32.5818 88.2622 39.2876 91.5877 47.1548 92.8785C53.6757 93.9484 60.2525 94.1784 66.827 93.9263C73.5777 93.6675 80.2368 92.6023 86.3876 89.6348C88.6155 88.56 90.6156 86.9616 92.5945 85.4393C94.0184 84.344 95.2347 82.9788 96.6195 81.7283C95.0965 84.5752 92.8092 86.7921 90.1732 88.6581C85.5906 91.9022 80.4015 93.6632 74.9153 94.5004C64.5669 96.0796 54.2315 96.1125 44.0184 93.522C37.8928 91.9683 32.4473 89.1421 28.3712 84.1387C27.4121 82.9614 26.6613 81.6144 25.8113 80.2676Z" fill="#BABABA"/>
<path d="M61.0166 21.0934C62.1013 20.4107 63.186 19.728 64.3834 19.0763C64.5246 19.1404 64.5531 19.1734 64.5816 19.2064C63.7067 20.9176 62.7942 22.6112 61.984 24.3525C61.7886 24.7725 61.7534 25.4657 61.98 25.8168C62.1428 26.0693 62.894 26.0951 63.3296 25.9938C65.9213 25.3913 68.319 25.3441 69.9584 25.897C69.5198 27.0139 69.1285 28.1575 68.6213 29.2472C68.3098 29.9164 67.8129 30.3726 66.9038 30.1941C63.2618 29.4788 59.6071 29.413 55.8611 30.0672C56.3794 27.2765 57.7359 24.9738 59.5554 22.9132C60.0697 22.3307 60.531 21.7013 61.0166 21.0934Z" fill="#FCFCFC"/>
<path d="M89.9113 21.1135C91.013 21.2161 91.7745 21.8818 92.066 22.8484C92.5233 24.365 92.9638 25.931 93.0697 27.4991C93.2348 29.9412 93.1134 32.4026 93.1134 34.8931C90.9478 34.4755 90.0205 33.2905 89.9271 31.3334C89.8618 29.9665 89.7452 28.5648 89.3706 27.2593C88.8625 25.488 87.3824 24.7597 85.6863 25.5058C84.3889 26.0765 83.1649 26.9369 82.1076 27.8896C81.3331 28.5876 80.6891 28.9023 79.6956 28.3303C81.0388 26.7854 82.3262 25.2374 83.8564 23.9864C85.0962 22.9728 86.6027 22.2674 88.0429 21.5262C88.5912 21.2439 89.2842 21.2428 89.9113 21.1135Z" fill="#D8D6D9"/>
<path d="M43.7526 28.3035C42.7093 28.7958 41.9559 28.5362 41.0797 27.7233C40.0678 26.7844 38.8285 25.9986 37.5557 25.4567C36.0006 24.7945 34.5844 25.4681 34.0888 27.0932C33.6727 28.4576 33.5284 29.929 33.4415 31.3638C33.3294 33.2164 32.4829 34.3931 30.6653 34.8572C30.6133 34.8132 30.5193 34.7701 30.5173 34.723C30.3597 31.1321 30.0705 27.5271 31.0522 24.0032C31.268 23.2286 31.7897 22.5393 32.3306 21.7884C33.8457 21.2588 35.1883 21.2942 36.458 21.9878C37.3743 22.4884 38.3384 22.9777 39.0985 23.6721C40.713 25.1467 42.2084 26.7518 43.7526 28.3035Z" fill="#D8D6DA"/>
<path d="M88.7476 41.6162C87.2066 43.1372 85.3223 43.6924 83.3317 43.8066C77.8088 44.1236 72.9832 42.4074 69.0788 38.4543C65.563 34.8946 66.6747 31.0082 71.539 29.8713C77.7561 28.4182 83.1888 30.123 87.8981 34.3156C88.4065 34.7683 88.8256 35.3488 89.1905 35.93C90.4281 37.9019 90.283 39.7308 88.7476 41.6162ZM85.9823 33.4584C83.1769 31.4715 79.9987 30.502 76.6289 30.1294C74.6118 29.9064 72.6233 30.135 70.7608 31.0176C68.2486 32.208 67.4854 34.5149 68.9036 36.9036C69.4133 37.7621 70.1129 38.556 70.8721 39.2095C73.4788 41.4532 76.5481 42.745 79.9494 43.1423C82.21 43.4063 84.4735 43.317 86.5301 42.1307C88.774 40.8364 89.5314 38.5043 88.2928 36.2409C87.7479 35.2453 86.8441 34.4462 85.9823 33.4584Z" fill="#DEDEDF"/>
<path d="M37.7948 43.4985C37.3239 43.3641 36.9277 43.2853 36.5586 43.1385C32.7398 41.6201 31.7966 38.1385 34.4506 34.9993C37.031 31.9472 40.5262 30.4552 44.3456 29.6538C46.7323 29.153 49.1295 29.2216 51.4832 29.8747C52.2451 30.0861 53.0057 30.3904 53.6866 30.7894C56.0006 32.1453 56.5812 34.3436 55.2458 36.6662C53.9488 38.9222 51.9473 40.4446 49.6935 41.6149C45.9799 43.5431 42.0688 44.4343 37.7948 43.4985ZM45.4631 42.6739C48.3815 41.8381 51.0399 40.511 53.1139 38.256C56.0181 35.0984 55.0391 31.6415 50.9017 30.544C46.1225 29.2762 41.7674 30.656 37.6553 33.0325C36.8549 33.4951 36.1341 34.1778 35.5347 34.8918C32.9012 38.0289 34.0204 41.6213 37.9563 42.7843C40.4037 43.5075 42.8506 43.3037 45.4631 42.6739Z" fill="#DEDDDE"/>
<path d="M22.7417 62.253C24.1092 59.1225 25.446 56.0711 26.7828 53.0197C26.8825 53.0511 26.9823 53.0825 27.082 53.1139C27.0948 53.3105 27.1719 53.5304 27.1106 53.7003C26.3613 55.7777 25.8318 57.9799 24.7795 59.8936C22.2374 64.5172 21.1268 69.326 21.7989 74.5882C22.1804 77.5755 22.2883 80.5974 22.5334 83.6026C22.6389 84.8958 22.78 86.1862 22.919 87.6245C22.4359 87.6245 22.0445 87.6014 21.6568 87.6299C21.0602 87.6737 20.8043 87.4447 20.797 86.824C20.7369 81.7671 20.5352 76.7081 20.6276 71.6544C20.6862 68.4483 21.5129 65.3276 22.7417 62.253Z" fill="#6C6B6C"/>
<path d="M34.4282 43.7306C40.1261 46.4723 45.5296 45.361 50.7685 42.5974C53.4088 41.2046 55.6134 39.2686 56.9326 36.4358C57.2659 37.7795 56.9809 39.0167 56.0388 40.4288C54.8311 42.2388 53.1242 43.4816 51.2319 44.4461C47.3135 46.4433 43.1866 47.4292 38.7913 46.4958C37.0319 46.1222 35.4074 45.3866 34.4282 43.7306Z" fill="#ACACAD"/>
<path d="M87.5097 44.976C85.126 46.7156 82.4792 46.9739 79.7393 46.7468C75.4858 46.3944 71.6507 44.9571 68.4348 42.1051C66.7912 40.6476 65.667 38.8817 65.861 36.6445C71.5264 44.3277 78.9445 46.7691 88.0961 44.1961C88.2415 44.3342 88.3869 44.4723 88.5323 44.6105C88.2134 44.7167 87.8946 44.823 87.5097 44.976Z" fill="#ADADAD"/>
<path d="M98.2965 59.5226C97.5205 57.3622 96.7892 55.2703 96.0579 53.1785C96.2036 53.1243 96.3493 53.0701 96.495 53.016C97.3591 54.9222 98.2597 56.8128 99.0795 58.7379C100.636 62.392 102.125 66.0822 102.455 70.0912C102.621 72.1126 102.64 74.1516 102.62 76.1815C102.585 79.638 102.429 83.0935 102.41 86.5499C102.404 87.5487 101.975 87.6541 101.157 87.6434C100.159 87.6304 100.375 86.974 100.427 86.4345C100.898 81.6261 101.503 76.8274 101.832 72.0096C102.041 68.9367 101.367 65.9222 100.138 63.0791C99.6209 61.8812 98.9452 60.7517 98.2965 59.5226Z" fill="#6B6B6C"/>
<path d="M65.565 87.6398C65.5935 88.252 65.6219 88.8642 65.6531 89.5355C62.9955 89.5355 60.3901 89.5355 57.7507 89.5355C57.7507 88.8918 57.7507 88.2541 57.8577 87.5146C60.5254 86.5754 63.0676 86.3581 65.565 87.6398Z" fill="#FEFEFE"/>
<path d="M86.9895 31.7071C86.31 31.2768 85.7032 30.8808 85.0748 30.5227C84.4781 30.1828 83.8588 29.8825 83.0083 29.439C84.09 28.7103 85.0372 28.0082 86.0471 27.4123C86.8619 26.9315 87.5065 27.2841 87.6638 28.1654C87.9022 29.5013 88.0026 30.8619 88.1978 32.5185C87.6161 32.1322 87.3344 31.945 86.9895 31.7071Z" fill="#F3F3F4"/>
<path d="M39.1568 28.5521C39.4763 28.8445 39.7339 29.0901 40.0156 29.3586C38.4636 30.2438 36.9644 31.0989 35.2412 32.0819C35.3916 30.7311 35.4441 29.4748 35.6928 28.2586C35.9152 27.1706 36.425 26.9762 37.4466 27.4626C38.0294 27.7401 38.5477 28.1532 39.1568 28.5521Z" fill="#F4F4F5"/>
<path d="M43.8344 28.3115C42.2076 26.7521 40.7122 25.147 39.0977 23.6723C38.3376 22.978 37.3735 22.4886 36.4571 21.988C35.1875 21.2944 33.8449 21.2591 32.3994 21.7634C33.4359 20.66 34.7911 20.7842 36.069 21.2593C37.2791 21.7092 38.4997 22.2757 39.5263 23.0439C41.5226 24.5378 43.3863 26.2089 45.5214 27.9867C44.7841 28.1395 44.3505 28.2294 43.8344 28.3115Z" fill="#E4E4E4"/>
<path d="M67.9243 49.0953C67.4176 49.0244 66.9447 48.9617 66.5189 48.7853C65.8825 48.5217 65.2709 48.1937 64.6636 47.8657C62.8353 46.8782 60.9634 46.6266 59.0182 47.4972C57.8945 48.0001 56.7752 48.5128 55.6042 49.0797C55.3041 48.8105 55.0034 48.4836 55.6283 48.2206C57.1317 47.5878 58.6118 46.8919 60.1416 46.3317C61.4215 45.863 62.7554 45.9873 63.9496 46.6267C65.33 47.3659 66.6391 48.2381 67.9243 49.0953Z" fill="#E4E4E5"/>
<path d="M60.9431 21.1102C60.5309 21.7015 60.0696 22.3309 59.5553 22.9134C57.7358 24.974 56.3793 27.2767 55.7661 30.0734C55.2691 29.9805 54.7735 29.7958 54.1985 29.5815C55.7946 26.1138 57.9708 23.3372 60.9431 21.1102Z" fill="#E7E7E7"/>
<path d="M89.8379 21.0699C89.2842 21.2422 88.5912 21.2434 88.0429 21.5256C86.6028 22.2669 85.0962 22.9723 83.8564 23.9859C82.3263 25.2369 81.0389 26.7848 79.6342 28.2794C79.1744 28.2898 78.7271 28.2253 78.0403 28.1262C80.7685 25.6685 83.129 23.127 86.3246 21.713C87.3681 21.2513 88.6122 21.2427 89.8379 21.0699Z" fill="#E3E3E4"/>
<path d="M68.6231 73.2272C68.8587 74.6018 67.8994 75.5413 67.1565 76.5022C66.6176 77.199 65.8528 77.8987 65.0447 78.1736C63.2634 78.7794 63.1687 80.1865 62.9925 81.6417C62.938 82.0912 62.825 82.5337 62.6594 83.0078C62.58 81.4802 62.58 79.9241 62.58 78.257C65.5044 77.7662 67.2586 75.7823 68.6231 73.2272Z" fill="#BABABA"/>
<path d="M99.5911 90.598C99.5831 90.0608 99.6355 89.5969 99.6948 89.072C100.799 89.072 101.833 89.072 103.022 89.072C102.945 89.5937 102.874 90.076 102.786 90.6712C101.734 90.6712 100.693 90.6712 99.5911 90.598Z" fill="#DEDEDF"/>
<path d="M20.3218 89.7934C20.4897 89.4654 20.6485 89.0525 20.8408 89.0363C21.6985 88.9639 22.5657 89.0048 23.5294 89.0048C23.5986 89.5608 23.6593 90.0484 23.739 90.6883C22.7483 90.6883 21.786 90.7306 20.8336 90.6523C20.6455 90.6368 20.4956 90.1569 20.3218 89.7934Z" fill="#DFDFE0"/>
<path d="M65.5771 87.5596C63.0675 86.3575 60.5253 86.5748 57.8789 87.4148C57.8968 87.2635 57.9651 87.0376 58.1094 86.9669C59.2432 86.412 60.3916 85.8868 61.4947 85.3715C62.7045 85.9085 63.9559 86.4531 65.1941 87.0265C65.3602 87.1034 65.4592 87.3252 65.5771 87.5596Z" fill="#D5D5D5"/>
<path d="M64.4586 19.0539C64.51 19.049 64.5991 19.0975 64.635 19.1764C64.5533 19.1736 64.5248 19.1405 64.4586 19.0539Z" fill="#FCFCFC"/>
<path d="M50.1421 58.0795C51.0411 60.7278 50.8387 63.1837 49.3092 65.451C47.4458 68.2133 44.0643 69.304 41.0568 68.1724C38.0166 67.0284 35.9686 63.5876 36.3674 60.3134C36.6069 58.3478 37.2968 56.5809 38.653 55.1135C41.9979 51.4943 47.3097 52.4072 49.6714 57.0033C49.837 57.3256 49.9671 57.6661 50.1421 58.0795ZM38.9575 62.2924C39.1522 60.5608 39.7929 59.0536 41.2165 57.9739C43.9544 55.8973 47.6225 57.5874 48.337 61.2757C48.4792 62.0098 48.4314 62.7808 48.4877 63.8476C48.7451 63.3428 48.9037 63.1185 48.9799 62.8691C49.8184 60.1257 48.6103 56.7469 46.1996 55.1764C44.7349 54.2222 43.1838 53.9687 41.4086 54.8086C36.9748 57.0996 37.05 63.3732 39.3344 65.0055C39.1989 64.1665 39.0614 63.3147 38.9575 62.2924ZM44.7827 61.6323C46.0922 61.5416 46.7877 60.7801 46.493 59.7414C46.2807 58.993 45.7611 58.5708 44.9909 58.5816C44.229 58.5922 43.6776 58.9933 43.5215 59.7659C43.3374 60.6771 43.7143 61.3049 44.7827 61.6323Z" fill="#2E2B38"/>
<path d="M81.0274 68.5396C76.7884 68.8528 73.3772 66.187 72.8474 62.239C72.2631 57.8847 75.0083 53.7471 78.9851 52.9628C80.5436 52.6554 81.9589 53.0413 83.2638 53.8478C87.0875 56.211 88.2606 61.7718 85.7429 65.4904C84.6248 67.1418 83.0785 68.1461 81.0274 68.5396ZM82.8787 55.3111C82.6741 55.2078 82.4694 55.1045 82.1599 54.88C79.8687 53.8618 77.8648 54.2756 76.137 56.1238C74.2684 58.1226 73.657 61.1766 74.7137 63.2334C75.018 61.0607 75.4237 59.8756 76.215 58.847C77.6313 57.006 79.924 56.5192 81.838 57.6994C83.3605 58.6382 84.0997 60.1066 84.4256 62.0029C84.3403 63.019 84.2551 64.0351 84.1744 64.9968C86.6332 62.8322 85.9837 57.5641 82.9101 55.4677C82.9101 55.4677 82.9348 55.4403 82.8787 55.3111ZM78.4304 58.5695C77.2617 58.9056 76.8021 59.5114 76.9953 60.4608C77.1607 61.2737 77.9425 61.7853 78.7954 61.616C79.5723 61.4618 80.0129 60.9371 80.0286 60.1814C80.0478 59.2606 79.5098 58.7223 78.4304 58.5695Z" fill="#2E2B37"/>
<path d="M44.9261 73.104C46.0615 73.6014 47.1175 74.0664 48.3759 74.6206C46.3377 74.9127 40.0662 73.2881 37.7838 71.9041C40.3772 71.7843 42.6269 72.3286 44.9261 73.104Z" fill="#34313D"/>
<path d="M75.1807 74.7591C78.5709 72.946 82.5822 71.9871 85.1011 72.4679C81.6656 73.8666 78.3308 74.8286 74.521 75.2804C74.8796 74.9879 74.9985 74.8909 75.1807 74.7591Z" fill="#34313D"/>
<path d="M39.7292 75.259C42.8335 75.0057 45.231 75.3588 47.2566 76.334C47.2515 76.4414 47.2465 76.5489 47.2415 76.6563C43.8964 76.4994 40.5514 76.3425 37.2063 76.1856C37.197 76.0592 37.1878 75.9327 37.1785 75.8062C37.9965 75.6303 38.8145 75.4543 39.7292 75.259Z" fill="#36333F"/>
<path d="M84.3375 76.6377C81.3857 76.7822 78.5281 76.9146 75.6705 77.0469C75.6649 76.9283 75.6593 76.8098 75.6537 76.6912C78.9086 75.3149 82.2327 75.2319 85.6361 76.4098C85.2346 76.4817 84.8331 76.5536 84.3375 76.6377Z" fill="#312E3B"/>
<path d="M79.437 78.3984C81.183 78.6994 82.7223 79.2281 83.9511 80.4093C83.9191 80.5134 83.8872 80.6176 83.8552 80.7217C81.3032 80.0902 78.7513 79.4588 76.1993 78.8273C76.218 78.6818 76.2367 78.5363 76.2555 78.3907C77.2844 78.3907 78.3134 78.3907 79.437 78.3984Z" fill="#36333F"/>
<path d="M43.5474 79.0963C41.9804 79.478 40.5037 79.8487 38.9264 80.2447C40.2617 78.2108 43.5185 77.3307 46.6779 78.2819C45.6645 78.5498 44.6512 78.8176 43.5474 79.0963Z" fill="#34313D"/>
<path d="M86.0414 33.5083C86.8427 34.4464 87.7466 35.2455 88.2914 36.2411C89.53 38.5044 88.7726 40.8366 86.5288 42.1308C84.4722 43.3171 82.2087 43.4065 79.9481 43.1424C76.5467 42.7451 73.4775 41.4534 70.8707 39.2096C70.1115 38.5561 69.4119 37.7622 68.9022 36.9037C67.484 34.5151 68.2472 32.2081 70.7594 31.0177C72.6219 30.1352 74.6104 29.9066 76.6275 30.1296C79.9974 30.5022 83.1756 31.4717 86.0414 33.5083ZM74.8976 40.1689C76.29 40.623 77.6824 41.0771 79.2363 41.6186C81.234 41.9973 83.2222 42.0053 85.1355 41.2527C87.586 40.2887 88.1657 38.2219 86.6081 36.097C85.4026 34.4525 83.7203 33.4864 81.6976 32.7738C80.7254 32.4914 79.7532 32.209 78.6316 31.8618C76.3642 31.3261 74.1081 31.227 71.8832 32.062C69.4544 32.9735 68.7985 34.8933 70.5355 36.8009C71.7244 38.1066 73.355 39.01 74.8976 40.1689Z" fill="#2E2A3A"/>
<path d="M45.3782 42.7044C42.8512 43.3044 40.4043 43.5083 37.957 42.7851C34.021 41.622 32.9019 38.0297 35.5354 34.8925C36.1347 34.1785 36.8555 33.4958 37.656 33.0332C41.768 30.6567 46.1231 29.2769 50.9023 30.5447C55.0397 31.6422 56.0187 35.0991 53.1146 38.2567C51.0406 40.5117 48.3821 41.8388 45.3782 42.7044ZM44.2647 31.8704C41.8251 32.4883 39.4099 33.1919 37.4771 34.9069C36.1976 36.0423 35.028 37.3766 35.694 39.2427C36.3578 41.1025 38.078 41.5143 39.836 41.7085C39.8713 41.7124 39.9081 41.702 40.1229 41.7711C41.7333 41.6089 43.3438 41.4468 45.137 41.2761C46.8366 40.4869 48.6147 39.8274 50.2073 38.8618C51.2234 38.2457 52.1173 37.2805 52.7951 36.2871C53.9293 34.6246 53.4507 33.0524 51.5933 32.3135C50.4421 31.8556 49.1484 31.7561 47.7292 31.4592C46.6316 31.5979 45.534 31.7366 44.2647 31.8704Z" fill="#2E2A3A"/>
<path d="M41.5627 54.8166C43.1831 53.9687 44.7342 54.2222 46.1989 55.1764C48.6096 56.7469 49.8177 60.1258 48.9792 62.8691C48.903 63.1186 48.7444 63.3428 48.487 63.8476C48.4306 62.7808 48.4785 62.0099 48.3362 61.2757C47.6217 57.5875 43.9537 55.8973 41.2158 57.974C39.7922 59.0536 39.1515 60.5608 38.8813 62.3091C38.4028 59.7854 38.9036 57.5414 40.9031 55.76C41.1818 55.5116 41.3457 55.1342 41.5627 54.8166Z" fill="#FAF9FA"/>
<path d="M41.4858 54.8126C41.3462 55.1342 41.1823 55.5116 40.9036 55.76C38.9041 57.5414 38.4033 59.7854 38.865 62.3943C39.0612 63.3147 39.1987 64.1665 39.3341 65.0056C37.0498 63.3733 36.9745 57.0996 41.4858 54.8126Z" fill="#D7D7D7"/>
<path d="M44.694 61.6186C43.7138 61.3048 43.3368 60.677 43.521 59.7658C43.6771 58.9932 44.2285 58.5921 44.9903 58.5815C45.7606 58.5708 46.2801 58.9929 46.4925 59.7413C46.7872 60.78 46.0916 61.5415 44.694 61.6186Z" fill="#F7F7F8"/>
<path d="M84.451 61.8076C84.1007 60.1073 83.3615 58.6388 81.8389 57.7C79.9249 56.5199 77.6323 57.0066 76.216 58.8476C75.4246 59.8762 75.019 61.0614 74.7147 63.234C73.658 61.1772 74.2693 58.1232 76.138 56.1244C77.8658 54.2762 79.8696 53.8624 82.2267 55.0174C82.507 55.2498 82.7214 55.3453 82.9358 55.4409C82.9358 55.4409 82.911 55.4683 82.9209 55.5326C83.1233 55.9368 83.2933 56.292 83.512 56.614C84.5954 58.2088 85.0066 59.9193 84.451 61.8076Z" fill="#FAFAFA"/>
<path d="M84.4377 61.9054C85.0056 59.9191 84.5944 58.2087 83.511 56.6139C83.2922 56.2918 83.1223 55.9366 82.9303 55.5172C85.9836 57.5646 86.6332 62.8326 84.1744 64.9973C84.255 64.0356 84.3402 63.0195 84.4377 61.9054Z" fill="#D3D3D4"/>
<path d="M78.5154 58.5699C79.5107 58.7225 80.0487 59.2607 80.0295 60.1816C80.0138 60.9373 79.5732 61.462 78.7963 61.6162C77.9434 61.7855 77.1616 61.2739 76.9962 60.461C76.803 59.5115 77.2626 58.9058 78.5154 58.5699Z" fill="#F8F8F8"/>
<path d="M82.907 55.376C82.7206 55.345 82.5062 55.2495 82.2784 55.0778C82.4697 55.1049 82.6743 55.2081 82.907 55.376Z" fill="#D3D3D4"/>
<path d="M81.8144 32.8674C83.7208 33.4863 85.4031 34.4523 86.6085 36.0968C88.1662 38.2218 87.5865 40.2886 85.136 41.2525C83.2227 42.0051 81.2345 41.9972 79.1851 41.4858C80.027 38.5246 80.9207 35.696 81.8144 32.8674Z" fill="#7C01E7"/>
<path d="M74.7891 40.0934C73.356 39.0101 71.7254 38.1067 70.5365 36.8011C68.7994 34.8935 69.4554 32.9737 71.8841 32.0622C74.109 31.2272 76.3651 31.3263 78.6587 31.964C77.3864 34.7418 76.0877 37.4176 74.7891 40.0934Z" fill="#7C01E7"/>
<path d="M74.8433 40.131C76.0872 37.4174 77.3858 34.7416 78.7329 31.9962C79.7536 32.209 80.7258 32.4914 81.7561 32.8207C80.9206 35.6961 80.0269 38.5247 79.1042 41.4423C77.6828 41.0771 76.2904 40.623 74.8433 40.131Z" fill="#9E6FF4"/>
<path d="M47.918 31.4956C49.1477 31.756 50.4414 31.8555 51.5925 32.3135C53.4499 33.0524 53.9285 34.6246 52.7943 36.287C52.1165 37.2805 51.2227 38.2456 50.2066 38.8617C48.614 39.8273 46.8358 40.4869 45.0677 41.1891C45.1017 40.7155 45.1912 40.3249 45.3087 39.9429C46.1753 37.1262 47.0475 34.3112 47.918 31.4956Z" fill="#7C01E7"/>
<path d="M39.9431 41.6978C39.907 41.7016 39.8701 41.7119 39.8349 41.708C38.0769 41.5138 36.3567 41.102 35.6929 39.2422C35.0269 37.3761 36.1965 36.0418 37.476 34.9064C39.4087 33.1914 41.824 32.4879 44.3314 31.9486C42.9139 35.2508 41.4285 38.4743 39.9431 41.6978Z" fill="#7C01E7"/>
<path d="M40.0323 41.7346C41.4284 38.4747 42.9138 35.2512 44.4171 31.9514C45.5328 31.7364 46.6304 31.5977 47.8228 31.4773C47.0471 34.3111 46.1749 37.1261 45.3083 39.9429C45.1907 40.3249 45.1013 40.7155 44.9759 41.1933C43.3426 41.4467 41.7321 41.6088 40.0323 41.7346Z" fill="#9D6FF3"/>
</g>
<defs>
<clipPath id="clip0_1_3417">
<rect width="87.5" height="87.5" fill="white" transform="translate(17.5005 15)"/>
</clipPath>
</defs>
</svg>
